<svg width="436" height="74" viewBox="0 0 436 74" xmlns="http://www.w3.org/2000/svg"><defs><linearGradient x1=".78%" y1="74.966%" x2="192.06%" y2="-22.048%" id="a"><stop stop-color="#6051F2" offset="0%"/><stop stop-color="#7D8CF9" offset="100%"/></linearGradient><linearGradient x1="-114.137%" y1="122.43%" x2="215.512%" y2="-23%" id="b"><stop stop-color="#7A89F9" offset="0%"/><stop stop-color="#8190F9" offset="26%"/><stop stop-color="#93A3FB" offset="63%"/><stop stop-color="#A9BBFC" offset="97%"/></linearGradient></defs><g fill="none"><path d="M103.641 57.863l-9.076-16.78h-7.829v16.78h-9.665V11.207h19.955c4.54 0 8.182 1.32 10.922 3.959 2.74 2.639 4.113 6.309 4.12 11.01a16.119 16.119 0 01-1.971 8.203 12.67 12.67 0 01-5.52 5.144l9.915 18.34h-10.85zm-16.94-25.32h9.148a6.482 6.482 0 004.645-1.686 6.134 6.134 0 001.783-4.68 6.303 6.303 0 00-1.783-4.806 6.518 6.518 0 00-4.645-1.676h-9.175l.027 12.847zm36.342-22.959a5.439 5.439 0 015.483 5.492 5.216 5.216 0 01-1.587 3.834 5.296 5.296 0 01-3.896 1.596 5.18 5.18 0 01-3.87-1.587 5.456 5.456 0 01.063-7.703 5.207 5.207 0 013.807-1.632zm4.547 48.279h-9.103V25.615h9.103v32.248zm24.707-32.899a14.774 14.774 0 0111.261 4.618c2.889 3.073 4.333 7.127 4.333 12.161 0 5.035-1.444 9.088-4.333 12.161a14.739 14.739 0 01-11.261 4.618c-3.953 0-6.97-1.144-9.05-3.432v18.678h-9.103V25.624h8.604v3.37c1.997-2.687 5.18-4.03 9.549-4.03zm-1.436 7.801a7.24 7.24 0 00-5.528 2.238 8.398 8.398 0 00-2.086 6.009v1.498a8.372 8.372 0 002.086 6.027 7.936 7.936 0 0011.163-.152c1.436-1.578 2.15-3.789 2.15-6.615s-.714-5.029-2.15-6.607a7.24 7.24 0 00-5.635-2.371v-.027zM203.94 44.64H181.8a6.83 6.83 0 001.873 4.806 6.625 6.625 0 004.832 1.783c3.246 0 5.222-1.188 5.93-3.566l9.165.437a11.662 11.662 0 01-5.02 7.543 16.522 16.522 0 01-9.807 2.933c-4.987 0-9.008-1.519-12.064-4.556-3.055-3.037-4.586-7.112-4.592-12.223 0-5.154 1.52-9.24 4.557-12.26 3.037-3.019 6.99-4.543 11.858-4.573 4.702 0 8.447 1.423 11.234 4.27 2.788 2.848 4.18 6.773 4.173 11.778v3.629zm-15.47-12.544a6.5 6.5 0 00-4.708 1.712 6.954 6.954 0 00-1.962 4.77h12.973a7.204 7.204 0 00-1.711-4.77 5.965 5.965 0 00-4.592-1.712zm49.342-18.206a11.84 11.84 0 014.618 8.979l-3.682.25c-.5-5.796-4.984-9.228-11.662-9.228-7.552 0-11.725 3.869-11.725 9.29a8.13 8.13 0 002.193 5.741 11.19 11.19 0 002.809 1.685c1.083.43 2.187.805 3.308 1.124l4.181.998c5.805 1.311 9.915 2.809 12.412 4.458 2.496 1.65 3.744 4.458 3.744 8.238 0 4.307-1.497 7.543-4.556 9.727-3.058 2.185-6.919 3.246-11.662 3.246-4.743 0-8.863-1.124-12.037-3.37a12.277 12.277 0 01-5.243-9.478l3.745-.25a9.71 9.71 0 004.173 7.133 15.782 15.782 0 009.362 2.675c7.48 0 12.483-3.174 12.483-9.478a7.89 7.89 0 00-2.31-5.741 10.263 10.263 0 00-3.05-1.685 24.146 24.146 0 00-3.619-1.186c-1.061-.312-2.621-.687-4.743-1.177-2.122-.49-3.62-.936-4.806-1.248a25.073 25.073 0 01-3.995-1.498c-4.11-1.997-5.795-4.458-6.107-9.86a11.59 11.59 0 013.905-8.97c2.675-2.434 6.482-3.62 11.475-3.62 4.431 0 7.98 1.061 10.789 3.246zm40.55 16.28c2.925 2.934 4.36 6.857 4.36 11.912 0 5.055-1.435 9.05-4.36 11.974a14.578 14.578 0 01-10.877 4.368c-5.733 0-9.978-2.62-11.912-6.419v21.763h-3.495V26.301h3.307v6.116c1.998-3.994 6.367-6.677 12.1-6.677a14.623 14.623 0 0110.877 4.43zm-22.834 10.842v2.184c0 7.926 4.681 12.161 11.591 12.161a11.787 11.787 0 008.676-3.486c2.309-2.371 3.432-5.617 3.432-9.736 0-4.119-1.123-7.48-3.432-9.807a11.76 11.76 0 00-8.676-3.495c-6.91.027-11.59 4.27-11.59 12.179zm60.104 16.851h-3.308v-5.35c-1.427 3.183-4.86 5.93-10.04 5.93-6.98 0-11.537-5.056-11.537-12.536V26.292h3.486V45.47c0 5.929 3.3 9.664 8.729 9.664a8.364 8.364 0 006.678-2.861 10.377 10.377 0 002.55-6.99V26.3h3.442v31.562zm24.234-3.183v3.183c-1.32.22-2.656.324-3.994.312-5.493 0-8.792-3.058-8.792-9.54l.063-19.276h-5.992v-3.058h5.992l.08-11.144h3.566l-.062 11.162h8.979v3.058h-9.015l-.125 18.652c0 4.671 1.998 6.98 5.992 6.98a27.098 27.098 0 003.308-.33zm28.505-25.383c2.31 2.309 3.433 5.35 3.433 9.165v19.4h-3.495V38.9c0-5.92-3.745-9.914-9.229-9.914a9.46 9.46 0 00-7.052 2.933 9.94 9.94 0 00-2.747 6.981v18.964h-3.495V26.3h3.37v5.35c1.499-3.246 5.306-5.93 10.486-5.93a11.52 11.52 0 018.729 3.576zm17.404-13.16a2.572 2.572 0 01-3.62-3.655c2.131-2.586 6.242 1.533 3.62 3.655zm-.062 41.726h-3.495V26.3h3.495v31.562zm14.097 0h-3.496V9.397h3.495zm14.096-16.343l15.781-15.219h4.458l-14.132 13.82 15.844 17.742h-4.61l-13.73-15.22-3.567 3.567v11.653h-3.54V9.397h3.496z" fill="#22283F"/><ellipse fill="url(#a)" cx="38.125" cy="37.535" rx="21.729" ry="21.727"/><ellipse fill="url(#b)" cx="9.398" cy="9.397" rx="9.398" ry="9.397"/></g></svg>